<svg aria-hidden="true" style="position: absolute; width: 0; height: 0; overflow: hidden;" version="1.1" xmlns="http://www.w3.org/2000/svg" xmlns:xlink="http://www.w3.org/1999/xlink">
<defs>
<symbol id="icon-logo" viewBox="0 0 31 32">
<path d="M28.712 11.095c0.359 2.075-1.845 1.523-1.845 1.523-0.922-2.599-2.398-2.357-2.398-2.357 1.155 0.844 1.243 1.561 1.243 1.561-3.078-2.182-7.263-0.427-8.855 0.398-0.893-1.261-2.699-4.083-2.058-5.363 0.845-1.678 2.563-0.718 2.563-0.718 3.476-0.058 3.282-1.3 3.282-1.3-0.922 0.718-3.641 0-3.641 0 2.359 0 3.359-0.96 3.359-0.96-1.757 0.436-3.719-1.435-3.719-1.435-0.719-3.676-4.039-2.114-4.039-2.114 2.078-0.359 1.524 1.843 1.524 1.843-2.602 0.921-2.359 2.395-2.359 2.395 0.845-1.154 1.563-1.241 1.563-1.241-2.379 3.346-0.087 8.001 0.592 9.213-1.243 0.863-4.156 2.764-5.466 2.104-1.68-0.844-0.718-2.56-0.718-2.56-0.039-3.472-1.282-3.278-1.282-3.278 0.718 0.921 0 3.637 0 3.637 0-2.357-0.961-3.355-0.961-3.355 0.437 1.755-1.437 3.714-1.437 3.714-3.68 0.718-2.117 4.034-2.117 4.034-0.359-2.075 1.845-1.523 1.845-1.523 0.922 2.599 2.398 2.357 2.398 2.357-1.155-0.844-1.243-1.561-1.243-1.561 3.253 2.308 7.748 0.213 9.107-0.524 0.913 1.309 2.612 4.005 1.981 5.256-0.845 1.678-2.563 0.718-2.563 0.718-3.476 0.039-3.282 1.28-3.282 1.28 0.922-0.718 3.641 0 3.641 0-2.359 0-3.359 0.96-3.359 0.96 1.757-0.436 3.719 1.435 3.719 1.435 0.719 3.675 4.039 2.114 4.039 2.114-2.078 0.359-1.524-1.843-1.524-1.843 2.602-0.921 2.359-2.395 2.359-2.395-0.845 1.154-1.563 1.241-1.563 1.241 2.33-3.268 0.184-7.797-0.544-9.126 1.32-0.921 3.99-2.57 5.224-1.949 1.68 0.844 0.718 2.56 0.718 2.56 0.039 3.472 1.282 3.278 1.282 3.278-0.718-0.921 0-3.637 0-3.637 0 2.357 0.961 3.355 0.961 3.355-0.437-1.755 1.437-3.714 1.437-3.714 3.699-0.708 2.136-4.025 2.136-4.025z"></path>
</symbol>
<symbol id="icon-hydra" viewBox="0 0 53 32">
<path d="M0 0h1.615v19.064h4.821v-19.064h1.614v32h-1.614v-11.33h-4.821v11.33h-1.615v-32z"></path>
<path d="M19.988 0l-4.002 20.67v11.33h-1.615v-11.33l-4.025-20.67h1.478l3.366 17.233 3.343-17.233h1.455z"></path>
<path d="M27.128 32h-4.844v-32h4.821c1.796 0 3.206 1.425 3.206 3.189v25.6c0.023 1.741-1.41 3.211-3.183 3.211zM23.899 1.606v28.789h3.206c0.864 0 1.615-0.724 1.615-1.606v-25.6c0-0.859-0.728-1.606-1.615-1.606h-3.206v0.023z"></path>
<path d="M40.909 32h-1.66l-2.842-11.33h-1.933v11.33h-1.615v-32h4.821c1.796 0 3.206 1.425 3.206 3.189v14.27c0 1.606-1.251 2.963-2.842 3.143l2.865 11.398zM34.473 19.064h3.206c0.864 0 1.615-0.724 1.615-1.606v-14.27c0-0.859-0.728-1.606-1.615-1.606h-3.206v17.481z"></path>
<path d="M45.775 20.67l-1.114 11.33h-1.455l3.229-32h3.206l3.206 32h-1.455l-1.114-11.33h-4.502zM48.344 1.606h-0.637l-1.751 17.459h4.139l-1.751-17.459z"></path>
</symbol>
<symbol id="icon-Hamburger-Button" viewBox="0 0 41 32">
<path d="M2.286 0h36.044c1.262 0 2.286 1.023 2.286 2.286v0c0 1.262-1.023 2.286-2.286 2.286h-36.044c-1.262 0-2.286-1.023-2.286-2.286v0c0-1.262 1.023-2.286 2.286-2.286z"></path>
<path d="M2.286 27.429h36.044c1.262 0 2.286 1.023 2.286 2.286v0c0 1.262-1.023 2.286-2.286 2.286h-36.044c-1.262 0-2.286-1.023-2.286-2.286v0c0-1.262 1.023-2.286 2.286-2.286z"></path>
<path d="M13.363 13.714h24.967c1.262 0 2.286 1.023 2.286 2.286v0c0 1.262-1.023 2.286-2.286 2.286h-24.967c-1.262 0-2.286-1.023-2.286-2.286v0c0-1.262 1.023-2.286 2.286-2.286z"></path>
</symbol>
<symbol id="icon-mail" viewBox="0 0 32 32">
<path fill="none" stroke="#c0b7e8" style="stroke: var(--color1, #c0b7e8)" stroke-linejoin="round" stroke-linecap="round" stroke-miterlimit="4" stroke-width="2.9538" d="M4.391 7.057c0.241-0.241 0.575-0.391 0.943-0.391h21.333c0.368 0 0.701 0.149 0.943 0.391M4.391 7.057c-0.241 0.241-0.391 0.575-0.391 0.943v16c0 0.736 0.597 1.333 1.333 1.333h21.333c0.736 0 1.333-0.597 1.333-1.333v-16c0-0.368-0.149-0.702-0.391-0.943M4.391 7.057l9.724 9.724c1.041 1.041 2.73 1.041 3.771 0l9.724-9.724"></path>
</symbol>
<symbol id="icon-phone-call" viewBox="0 0 32 32">
<path fill="none" stroke="#c0b7e8" style="stroke: var(--color1, #c0b7e8)" stroke-linejoin="round" stroke-linecap="round" stroke-miterlimit="4" stroke-width="3.2542" d="M19.333 8.667c0.983 0.192 1.959 0.625 2.667 1.333s1.142 1.684 1.333 2.667M20 4c2.042 0.227 3.88 1.215 5.333 2.667s2.437 3.292 2.667 5.333M27.999 21.969v3.613c0.006 1.381-1.236 2.534-2.631 2.409-12.035 0.009-21.369-9.411-21.359-21.365-0.126-1.387 1.022-2.624 2.401-2.625h3.62c0.586-0.006 1.153 0.201 1.597 0.582 1.262 1.084 2.074 4.761 1.762 6.223-0.244 1.141-1.395 1.94-2.177 2.721 1.718 3.015 4.219 5.512 7.24 7.226 0.782-0.781 1.582-1.929 2.726-2.173 1.467-0.312 5.169 0.501 6.248 1.772 0.383 0.451 0.586 1.026 0.571 1.617z"></path>
</symbol>
<symbol id="icon-Location-Icon" viewBox="0 0 32 32">
<path fill="#c0b7e8" style="fill: var(--color1, #c0b7e8)" d="M16 2.667c5.155 0 9.333 4.179 9.333 9.333 0 1.559-0.381 3.027-1.057 4.319l-8.276 14.347-8.084-13.999c-0.796-1.374-1.249-2.967-1.249-4.667 0-5.155 4.179-9.333 9.333-9.333zM16 5.333c-3.682 0-6.667 2.985-6.667 6.667 0 1.059 0.244 2.075 0.706 2.992l0.224 0.409 5.736 9.933 5.777-10.002c0.581-1.003 0.89-2.14 0.89-3.331 0-3.682-2.985-6.667-6.667-6.667zM16 8c2.209 0 4 1.791 4 4s-1.791 4-4 4c-2.209 0-4-1.791-4-4s1.791-4 4-4zM16 10.667c-0.736 0-1.333 0.597-1.333 1.333s0.597 1.333 1.333 1.333c0.736 0 1.333-0.597 1.333-1.333s-0.597-1.333-1.333-1.333z"></path>
</symbol>
<symbol id="arrow-left" viewBox="0 0 32 32">
<path fill="none" stroke="#fff" style="stroke: var(--color1, #fff)" stroke-linejoin="round" stroke-linecap="round" stroke-miterlimit="4" stroke-width="1.6" d="M18.667 22.667l-6.667-6.667 6.667-6.667M4 16c0 6.627 5.373 12 12 12s12-5.373 12-12c0-6.627-5.373-12-12-12s-12 5.373-12 12z"></path>
</symbol>
<symbol id="arrow-right" viewBox="0 0 32 32">
<path fill="none" stroke="#fff" style="stroke: var(--color1, #fff)" stroke-linejoin="round" stroke-linecap="round" stroke-miterlimit="4" stroke-width="1.6" d="M13.333 22.667l6.667-6.667-6.667-6.667M28 16c0 6.627-5.373 12-12 12s-12-5.373-12-12c0-6.627 5.373-12 12-12s12 5.373 12 12z"></path>
</symbol>
<symbol id="icon-VectorProc" viewBox="0 0 273 32">
<path stroke-linejoin="miter" stroke-linecap="butt" stroke-miterlimit="4" stroke-width="1.1361" d="M-1.704 4.115c2.931 9.408 18.376 30.203 48.165 16.101 19.906-9.424 30.294-19.7 55.619-2.936s44.916 15.628 57.243-1.705c12.328-17.333 44.438-21.973 56.478-1.421s52.656 23.015 56.862 6.062"></path>
</symbol>
<symbol id="icon-arrow2" viewBox="0 0 38 38">
<path d="M15.8334 26.9166L23.75 19L15.8334 11.0833" stroke="#433D60" stroke-width="3" stroke-linecap="round" stroke-linejoin="round"/>
</symbol>
<symbol id="icon-arrow3" viewBox="0 0 38 38">
<path d="M22.1666 26.9166L14.25 19L22.1666 11.0833" stroke="#433D60" stroke-width="3" stroke-linecap="round" stroke-linejoin="round"/>
</symbol>
<symbol id="facebook" viewBox="0 0 32 32">
<path fill-rule="evenodd" clip-rule="evenodd" d="M0 16C0 7.16344 7.16344 0 16 0C24.8366 0 32 7.16344 32 16C32 24.8366 24.8366 32 16 32C7.16344 32 0 24.8366 0 16ZM16 8C20.4 8 24 11.6 24 16C24 20 21.1 23.4 17.1 24V18.3H19L19.4 16H17.2V14.5C17.2 13.9 17.5 13.3 18.5 13.3H19.5V11.3C19.5 11.3 18.6 11.1 17.7 11.1C15.9 11.1 14.7 12.2 14.7 14.2V16H12.7V18.3H14.7V23.9C10.9 23.3 8 20 8 16C8 11.6 11.6 8 16 8Z" fill="#C0B7E8"/>
</symbol>
<symbol id="instagram" viewBox="0 0 32 32">
<path d="M16 18.8C14.5 18.8 13.2 17.6 13.2 16C13.2 14.5 14.4 13.2 16 13.2C17.5 13.2 18.8 14.4 18.8 16C18.8 17.5 17.5 18.8 16 18.8Z" fill="#C0B7E8"/>
<path fill-rule="evenodd" clip-rule="evenodd" d="M19.4 9.2H12.6C11.8 9.3 11.4 9.4 11.1 9.5C10.7 9.6 10.4 9.8 10.1 10.1C9.86261 10.3374 9.75045 10.5748 9.61489 10.8617C9.57916 10.9373 9.5417 11.0166 9.5 11.1C9.48453 11.1464 9.46667 11.1952 9.44752 11.2475C9.34291 11.5333 9.2 11.9238 9.2 12.6V19.4C9.3 20.2 9.4 20.6 9.5 20.9C9.6 21.3 9.8 21.6 10.1 21.9C10.3374 22.1374 10.5748 22.2495 10.8617 22.3851C10.9374 22.4209 11.0165 22.4583 11.1 22.5C11.1464 22.5155 11.1952 22.5333 11.2475 22.5525C11.5333 22.6571 11.9238 22.8 12.6 22.8H19.4C20.2 22.7 20.6 22.6 20.9 22.5C21.3 22.4 21.6 22.2 21.9 21.9C22.1374 21.6626 22.2495 21.4252 22.3851 21.1383C22.4209 21.0626 22.4583 20.9835 22.5 20.9C22.5155 20.8536 22.5333 20.8048 22.5525 20.7525C22.6571 20.4667 22.8 20.0762 22.8 19.4V12.6C22.7 11.8 22.6 11.4 22.5 11.1C22.4 10.7 22.2 10.4 21.9 10.1C21.6626 9.86261 21.4252 9.75045 21.1383 9.61488C21.0627 9.57918 20.9833 9.54167 20.9 9.5C20.8536 9.48453 20.8048 9.46666 20.7525 9.44752C20.4667 9.3429 20.0762 9.2 19.4 9.2ZM16 11.7C13.6 11.7 11.7 13.6 11.7 16C11.7 18.4 13.6 20.3 16 20.3C18.4 20.3 20.3 18.4 20.3 16C20.3 13.6 18.4 11.7 16 11.7ZM21.4 11.6C21.4 12.1523 20.9523 12.6 20.4 12.6C19.8477 12.6 19.4 12.1523 19.4 11.6C19.4 11.0477 19.8477 10.6 20.4 10.6C20.9523 10.6 21.4 11.0477 21.4 11.6Z" fill="#C0B7E8"/>
<path fill-rule="evenodd" clip-rule="evenodd" d="M0 16C0 7.16344 7.16344 0 16 0C24.8366 0 32 7.16344 32 16C32 24.8366 24.8366 32 16 32C7.16344 32 0 24.8366 0 16ZM12.6 7.7H19.4C20.3 7.8 20.9 7.9 21.4 8.1C22 8.4 22.4 8.6 22.9 9.1C23.4 9.6 23.7 10.1 23.9 10.6C24.1 11.1 24.3 11.7 24.3 12.6V19.4C24.2 20.3 24.1 20.9 23.9 21.4C23.6 22 23.4 22.4 22.9 22.9C22.4 23.4 21.9 23.7 21.4 23.9C20.9 24.1 20.3 24.3 19.4 24.3H12.6C11.7 24.2 11.1 24.1 10.6 23.9C10 23.6 9.6 23.4 9.1 22.9C8.6 22.4 8.3 21.9 8.1 21.4C7.9 20.9 7.7 20.3 7.7 19.4V12.6C7.8 11.7 7.9 11.1 8.1 10.6C8.4 10 8.6 9.6 9.1 9.1C9.6 8.6 10.1 8.3 10.6 8.1C11.1 7.9 11.7 7.7 12.6 7.7Z" fill="#C0B7E8"/>
</symbol>
<symbol id="linkedin" viewBox="0 0 32 32">
<path fill-rule="evenodd" clip-rule="evenodd" d="M0 16C0 7.16344 7.16344 0 16 0C24.8366 0 32 7.16344 32 16C32 24.8366 24.8366 32 16 32C7.16344 32 0 24.8366 0 16ZM8.2 13.3V24H11.6V13.3H8.2ZM8 9.9C8 11 8.8 11.8 9.9 11.8C11 11.8 11.8 11 11.8 9.9C11.8 8.8 11 8 9.9 8C8.9 8 8 8.8 8 9.9ZM20.6 24H23.8V17.4C23.8 14.1 21.8 13 19.9 13C18.2 13 17 14.1 16.7 14.8V13.3H13.5V24H16.9V18.3C16.9 16.8 17.9 16 18.9 16C19.9 16 20.6 16.5 20.6 18.2V24Z" fill="#C0B7E8"/>
</symbol>
<symbol id="pinterest" viewBox="0 0 32 32">
<path fill-rule="evenodd" clip-rule="evenodd" d="M0 16C0 7.16344 7.16344 0 16 0C24.8366 0 32 7.16344 32 16C32 24.8366 24.8366 32 16 32C7.16344 32 0 24.8366 0 16ZM8 16C8 11.6 11.6 8 16 8C20.4 8 24 11.6 23.9 15.6C23.9 20 20.3 23.6 15.9 23.6C15.1 23.6 14.3 23.5 13.6 23.3C13.9 22.8 14.2 22.2 14.4 21.6C14.5 21.2 15 19.4 15 19.4C15.3 19.9 16.1 20.4 17 20.4C19.6 20.4 21.3 18 21.3 14.9C21.3 12.5 19.3 10.3 16.2 10.3C12.4 10.3 10.5 13 10.5 15.3C10.5 16.7 11 17.9 12.1 18.4C12.3 18.5 12.4 18.4 12.5 18.2C12.6 18.1 12.7 17.7 12.7 17.6C12.7707 17.4586 12.7414 17.4172 12.6828 17.3343C12.6586 17.3 12.6293 17.2586 12.6 17.2C12.3 16.8 12.1 16.3 12.1 15.6C12.1 13.6 13.6 11.8 16 11.8C18.1 11.8 19.3 13.1 19.3 14.9C19.3 17.3 18.3 19.2 16.8 19.2C15.9 19.2 15.3 18.5 15.5 17.7C15.5835 17.2826 15.7192 16.8477 15.8491 16.4318C16.0303 15.8514 16.2 15.3078 16.2 14.9C16.2 14.2 15.8 13.7 15.1 13.7C14.3 13.7 13.6 14.6 13.6 15.8C13.6 16.6 13.9 17.1 13.9 17.1C13.9 17.1 13.1 20.8 12.9 21.5C12.8 22.1 12.8 22.6999 12.8 23.2999C10 22.0999 8 19.3 8 16Z" fill="#C0B7E8"/>
</symbol>
<symbol id="twitter" viewBox="0 0 32 32">
<path fill-rule="evenodd" clip-rule="evenodd" d="M0 16C0 7.16344 7.16344 0 16 0C24.8366 0 32 7.16344 32 16C32 24.8366 24.8366 32 16 32C7.16344 32 0 24.8366 0 16ZM22.1 11.5C22.8 11.4 23.4 11.3 24 11C23.6 11.7 23 12.3 22.3 12.7C22.5 17.4 19.1 22.5 13 22.5C11.2 22.5 9.5 21.9 8 21C9.7 21.2 11.5 20.7 12.7 19.8C11.2 19.8 10 18.8 9.6 17.5C10.1 17.6 10.6 17.5 11.1 17.4C9.6 17 8.5 15.6 8.5 14.1C9 14.3 9.5 14.5 10 14.5C8.6 13.5 8.1 11.6 9 10.1C10.7 12.1 13.1 13.4 15.8 13.5C15.3 11.5 16.9 9.5 19 9.5C19.9 9.5 20.8 9.9 21.4 10.5C22.2 10.3 22.9 10.1 23.5 9.7C23.3 10.5 22.8 11.1 22.1 11.5Z" fill="#C0B7E8"/>
</symbol>
<symbol id="youtube" viewBox="0 0 32 32">
<path d="M18.6 16L14.4 13.6V18.4L18.6 16Z" fill="#C0B7E8"/>
<path fill-rule="evenodd" clip-rule="evenodd" d="M0 16C0 7.16344 7.16344 0 16 0C24.8366 0 32 7.16344 32 16C32 24.8366 24.8366 32 16 32C7.16344 32 0 24.8366 0 16ZM22.2 10.7C22.9 10.9 23.4 11.4 23.6 12.1C24 13.4 24 16 24 16C24 16 24 18.6 23.7 19.9C23.5 20.6 23 21.1 22.3 21.3C21 21.6 16 21.6 16 21.6C16 21.6 10.9 21.6 9.7 21.3C9 21.1 8.5 20.6 8.3 19.9C8 18.6 8 16 8 16C8 16 8 13.4 8.2 12.1C8.4 11.4 8.90001 10.9 9.60001 10.7C10.9 10.4 15.9 10.4 15.9 10.4C15.9 10.4 21 10.4 22.2 10.7Z" fill="#C0B7E8"/>
</symbol>
</defs>
</svg>
