<svg aria-hidden="true" style="position: absolute; width: 0; height: 0; overflow: hidden;" version="1.1" xmlns="http://www.w3.org/2000/svg" xmlns:xlink="http://www.w3.org/1999/xlink">
<defs>
<symbol id="icon-logo" viewBox="0 0 31 32">
<path d="M28.712 11.095c0.359 2.075-1.845 1.523-1.845 1.523-0.922-2.599-2.398-2.357-2.398-2.357 1.155 0.844 1.243 1.561 1.243 1.561-3.078-2.182-7.263-0.427-8.855 0.398-0.893-1.261-2.699-4.083-2.058-5.363 0.845-1.678 2.563-0.718 2.563-0.718 3.476-0.058 3.282-1.3 3.282-1.3-0.922 0.718-3.641 0-3.641 0 2.359 0 3.359-0.96 3.359-0.96-1.757 0.436-3.719-1.435-3.719-1.435-0.719-3.676-4.039-2.114-4.039-2.114 2.078-0.359 1.524 1.843 1.524 1.843-2.602 0.921-2.359 2.395-2.359 2.395 0.845-1.154 1.563-1.241 1.563-1.241-2.379 3.346-0.087 8.001 0.592 9.213-1.243 0.863-4.156 2.764-5.466 2.104-1.68-0.844-0.718-2.56-0.718-2.56-0.039-3.472-1.282-3.278-1.282-3.278 0.718 0.921 0 3.637 0 3.637 0-2.357-0.961-3.355-0.961-3.355 0.437 1.755-1.437 3.714-1.437 3.714-3.68 0.718-2.117 4.034-2.117 4.034-0.359-2.075 1.845-1.523 1.845-1.523 0.922 2.599 2.398 2.357 2.398 2.357-1.155-0.844-1.243-1.561-1.243-1.561 3.253 2.308 7.748 0.213 9.107-0.524 0.913 1.309 2.612 4.005 1.981 5.256-0.845 1.678-2.563 0.718-2.563 0.718-3.476 0.039-3.282 1.28-3.282 1.28 0.922-0.718 3.641 0 3.641 0-2.359 0-3.359 0.96-3.359 0.96 1.757-0.436 3.719 1.435 3.719 1.435 0.719 3.675 4.039 2.114 4.039 2.114-2.078 0.359-1.524-1.843-1.524-1.843 2.602-0.921 2.359-2.395 2.359-2.395-0.845 1.154-1.563 1.241-1.563 1.241 2.33-3.268 0.184-7.797-0.544-9.126 1.32-0.921 3.99-2.57 5.224-1.949 1.68 0.844 0.718 2.56 0.718 2.56 0.039 3.472 1.282 3.278 1.282 3.278-0.718-0.921 0-3.637 0-3.637 0 2.357 0.961 3.355 0.961 3.355-0.437-1.755 1.437-3.714 1.437-3.714 3.699-0.708 2.136-4.025 2.136-4.025z"></path>
</symbol>
<symbol id="icon-hydra" viewBox="0 0 53 32">
<path d="M0 0h1.615v19.064h4.821v-19.064h1.614v32h-1.614v-11.33h-4.821v11.33h-1.615v-32z"></path>
<path d="M19.988 0l-4.002 20.67v11.33h-1.615v-11.33l-4.025-20.67h1.478l3.366 17.233 3.343-17.233h1.455z"></path>
<path d="M27.128 32h-4.844v-32h4.821c1.796 0 3.206 1.425 3.206 3.189v25.6c0.023 1.741-1.41 3.211-3.183 3.211zM23.899 1.606v28.789h3.206c0.864 0 1.615-0.724 1.615-1.606v-25.6c0-0.859-0.728-1.606-1.615-1.606h-3.206v0.023z"></path>
<path d="M40.909 32h-1.66l-2.842-11.33h-1.933v11.33h-1.615v-32h4.821c1.796 0 3.206 1.425 3.206 3.189v14.27c0 1.606-1.251 2.963-2.842 3.143l2.865 11.398zM34.473 19.064h3.206c0.864 0 1.615-0.724 1.615-1.606v-14.27c0-0.859-0.728-1.606-1.615-1.606h-3.206v17.481z"></path>
<path d="M45.775 20.67l-1.114 11.33h-1.455l3.229-32h3.206l3.206 32h-1.455l-1.114-11.33h-4.502zM48.344 1.606h-0.637l-1.751 17.459h4.139l-1.751-17.459z"></path>
</symbol>
<symbol id="icon-Hamburger-Button" viewBox="0 0 41 32">
<path d="M2.286 0h36.044c1.262 0 2.286 1.023 2.286 2.286v0c0 1.262-1.023 2.286-2.286 2.286h-36.044c-1.262 0-2.286-1.023-2.286-2.286v0c0-1.262 1.023-2.286 2.286-2.286z"></path>
<path d="M2.286 27.429h36.044c1.262 0 2.286 1.023 2.286 2.286v0c0 1.262-1.023 2.286-2.286 2.286h-36.044c-1.262 0-2.286-1.023-2.286-2.286v0c0-1.262 1.023-2.286 2.286-2.286z"></path>
<path d="M13.363 13.714h24.967c1.262 0 2.286 1.023 2.286 2.286v0c0 1.262-1.023 2.286-2.286 2.286h-24.967c-1.262 0-2.286-1.023-2.286-2.286v0c0-1.262 1.023-2.286 2.286-2.286z"></path>
</symbol>
</defs>
</svg>
