<svg aria-hidden="true" style="position: absolute; width: 0; height: 0; overflow: hidden;" version="1.1" xmlns="http://www.w3.org/2000/svg" xmlns:xlink="http://www.w3.org/1999/xlink">
<defs>
<symbol id="icon-logo" viewBox="0 0 31 32">
<path d="M28.712 11.095c0.359 2.075-1.845 1.523-1.845 1.523-0.922-2.599-2.398-2.357-2.398-2.357 1.155 0.844 1.243 1.561 1.243 1.561-3.078-2.182-7.263-0.427-8.855 0.398-0.893-1.261-2.699-4.083-2.058-5.363 0.845-1.678 2.563-0.718 2.563-0.718 3.476-0.058 3.282-1.3 3.282-1.3-0.922 0.718-3.641 0-3.641 0 2.359 0 3.359-0.96 3.359-0.96-1.757 0.436-3.719-1.435-3.719-1.435-0.719-3.676-4.039-2.114-4.039-2.114 2.078-0.359 1.524 1.843 1.524 1.843-2.602 0.921-2.359 2.395-2.359 2.395 0.845-1.154 1.563-1.241 1.563-1.241-2.379 3.346-0.087 8.001 0.592 9.213-1.243 0.863-4.156 2.764-5.466 2.104-1.68-0.844-0.718-2.56-0.718-2.56-0.039-3.472-1.282-3.278-1.282-3.278 0.718 0.921 0 3.637 0 3.637 0-2.357-0.961-3.355-0.961-3.355 0.437 1.755-1.437 3.714-1.437 3.714-3.68 0.718-2.117 4.034-2.117 4.034-0.359-2.075 1.845-1.523 1.845-1.523 0.922 2.599 2.398 2.357 2.398 2.357-1.155-0.844-1.243-1.561-1.243-1.561 3.253 2.308 7.748 0.213 9.107-0.524 0.913 1.309 2.612 4.005 1.981 5.256-0.845 1.678-2.563 0.718-2.563 0.718-3.476 0.039-3.282 1.28-3.282 1.28 0.922-0.718 3.641 0 3.641 0-2.359 0-3.359 0.96-3.359 0.96 1.757-0.436 3.719 1.435 3.719 1.435 0.719 3.675 4.039 2.114 4.039 2.114-2.078 0.359-1.524-1.843-1.524-1.843 2.602-0.921 2.359-2.395 2.359-2.395-0.845 1.154-1.563 1.241-1.563 1.241 2.33-3.268 0.184-7.797-0.544-9.126 1.32-0.921 3.99-2.57 5.224-1.949 1.68 0.844 0.718 2.56 0.718 2.56 0.039 3.472 1.282 3.278 1.282 3.278-0.718-0.921 0-3.637 0-3.637 0 2.357 0.961 3.355 0.961 3.355-0.437-1.755 1.437-3.714 1.437-3.714 3.699-0.708 2.136-4.025 2.136-4.025z"></path>
</symbol>
<symbol id="icon-hydra" viewBox="0 0 53 32">
<path d="M0 0h1.615v19.064h4.821v-19.064h1.614v32h-1.614v-11.33h-4.821v11.33h-1.615v-32z"></path>
<path d="M19.988 0l-4.002 20.67v11.33h-1.615v-11.33l-4.025-20.67h1.478l3.366 17.233 3.343-17.233h1.455z"></path>
<path d="M27.128 32h-4.844v-32h4.821c1.796 0 3.206 1.425 3.206 3.189v25.6c0.023 1.741-1.41 3.211-3.183 3.211zM23.899 1.606v28.789h3.206c0.864 0 1.615-0.724 1.615-1.606v-25.6c0-0.859-0.728-1.606-1.615-1.606h-3.206v0.023z"></path>
<path d="M40.909 32h-1.66l-2.842-11.33h-1.933v11.33h-1.615v-32h4.821c1.796 0 3.206 1.425 3.206 3.189v14.27c0 1.606-1.251 2.963-2.842 3.143l2.865 11.398zM34.473 19.064h3.206c0.864 0 1.615-0.724 1.615-1.606v-14.27c0-0.859-0.728-1.606-1.615-1.606h-3.206v17.481z"></path>
<path d="M45.775 20.67l-1.114 11.33h-1.455l3.229-32h3.206l3.206 32h-1.455l-1.114-11.33h-4.502zM48.344 1.606h-0.637l-1.751 17.459h4.139l-1.751-17.459z"></path>
</symbol>
<symbol id="icon-Hamburger-Button" viewBox="0 0 41 32">
<path d="M2.286 0h36.044c1.262 0 2.286 1.023 2.286 2.286v0c0 1.262-1.023 2.286-2.286 2.286h-36.044c-1.262 0-2.286-1.023-2.286-2.286v0c0-1.262 1.023-2.286 2.286-2.286z"></path>
<path d="M2.286 27.429h36.044c1.262 0 2.286 1.023 2.286 2.286v0c0 1.262-1.023 2.286-2.286 2.286h-36.044c-1.262 0-2.286-1.023-2.286-2.286v0c0-1.262 1.023-2.286 2.286-2.286z"></path>
<path d="M13.363 13.714h24.967c1.262 0 2.286 1.023 2.286 2.286v0c0 1.262-1.023 2.286-2.286 2.286h-24.967c-1.262 0-2.286-1.023-2.286-2.286v0c0-1.262 1.023-2.286 2.286-2.286z"></path>
</symbol>
<symbol id="icon-mail" viewBox="0 0 32 32">
<path fill="none" stroke="#c0b7e8" style="stroke: var(--color1, #c0b7e8)" stroke-linejoin="round" stroke-linecap="round" stroke-miterlimit="4" stroke-width="2.9538" d="M4.391 7.057c0.241-0.241 0.575-0.391 0.943-0.391h21.333c0.368 0 0.701 0.149 0.943 0.391M4.391 7.057c-0.241 0.241-0.391 0.575-0.391 0.943v16c0 0.736 0.597 1.333 1.333 1.333h21.333c0.736 0 1.333-0.597 1.333-1.333v-16c0-0.368-0.149-0.702-0.391-0.943M4.391 7.057l9.724 9.724c1.041 1.041 2.73 1.041 3.771 0l9.724-9.724"></path>
</symbol>
<symbol id="icon-phone-call" viewBox="0 0 32 32">
<path fill="none" stroke="#c0b7e8" style="stroke: var(--color1, #c0b7e8)" stroke-linejoin="round" stroke-linecap="round" stroke-miterlimit="4" stroke-width="3.2542" d="M19.333 8.667c0.983 0.192 1.959 0.625 2.667 1.333s1.142 1.684 1.333 2.667M20 4c2.042 0.227 3.88 1.215 5.333 2.667s2.437 3.292 2.667 5.333M27.999 21.969v3.613c0.006 1.381-1.236 2.534-2.631 2.409-12.035 0.009-21.369-9.411-21.359-21.365-0.126-1.387 1.022-2.624 2.401-2.625h3.62c0.586-0.006 1.153 0.201 1.597 0.582 1.262 1.084 2.074 4.761 1.762 6.223-0.244 1.141-1.395 1.94-2.177 2.721 1.718 3.015 4.219 5.512 7.24 7.226 0.782-0.781 1.582-1.929 2.726-2.173 1.467-0.312 5.169 0.501 6.248 1.772 0.383 0.451 0.586 1.026 0.571 1.617z"></path>
</symbol>
<symbol id="icon-Location-Icon" viewBox="0 0 32 32">
<path fill="#c0b7e8" style="fill: var(--color1, #c0b7e8)" d="M16 2.667c5.155 0 9.333 4.179 9.333 9.333 0 1.559-0.381 3.027-1.057 4.319l-8.276 14.347-8.084-13.999c-0.796-1.374-1.249-2.967-1.249-4.667 0-5.155 4.179-9.333 9.333-9.333zM16 5.333c-3.682 0-6.667 2.985-6.667 6.667 0 1.059 0.244 2.075 0.706 2.992l0.224 0.409 5.736 9.933 5.777-10.002c0.581-1.003 0.89-2.14 0.89-3.331 0-3.682-2.985-6.667-6.667-6.667zM16 8c2.209 0 4 1.791 4 4s-1.791 4-4 4c-2.209 0-4-1.791-4-4s1.791-4 4-4zM16 10.667c-0.736 0-1.333 0.597-1.333 1.333s0.597 1.333 1.333 1.333c0.736 0 1.333-0.597 1.333-1.333s-0.597-1.333-1.333-1.333z"></path>
</symbol>
<symbol id="arrow-left" viewBox="0 0 32 32">
<path fill="none" stroke="#fff" style="stroke: var(--color1, #fff)" stroke-linejoin="round" stroke-linecap="round" stroke-miterlimit="4" stroke-width="1.6" d="M18.667 22.667l-6.667-6.667 6.667-6.667M4 16c0 6.627 5.373 12 12 12s12-5.373 12-12c0-6.627-5.373-12-12-12s-12 5.373-12 12z"></path>
</symbol>
<symbol id="arrow-right" viewBox="0 0 32 32">
<path fill="none" stroke="#fff" style="stroke: var(--color1, #fff)" stroke-linejoin="round" stroke-linecap="round" stroke-miterlimit="4" stroke-width="1.6" d="M13.333 22.667l6.667-6.667-6.667-6.667M28 16c0 6.627-5.373 12-12 12s-12-5.373-12-12c0-6.627 5.373-12 12-12s12 5.373 12 12z"></path>
</symbol>
</defs>
</svg>
